<svg width="40" height="40" viewBox="0 0 40 40" fill="none" xmlns="http://www.w3.org/2000/svg">
<circle cx="20" cy="20" r="20" fill="white"/>
<path d="M17.6925 21.2459C17.6205 21.2459 16.0365 21.2459 15.3165 21.2459C14.9325 21.2459 14.8125 21.1019 14.8125 20.7419C14.8125 19.7819 14.8125 18.7979 14.8125 17.8379C14.8125 17.4539 14.9565 17.3339 15.3165 17.3339H17.6925C17.6925 17.2619 17.6925 15.8699 17.6925 15.2219C17.6925 14.2619 17.8605 13.3499 18.3405 12.5099C18.8445 11.6459 19.5645 11.0699 20.4765 10.7339C21.0765 10.5179 21.6765 10.4219 22.3245 10.4219H24.6765C25.0125 10.4219 25.1565 10.5659 25.1565 10.9019V13.6379C25.1565 13.9739 25.0125 14.1179 24.6765 14.1179C24.0285 14.1179 23.3805 14.1179 22.7325 14.1419C22.0845 14.1419 21.7485 14.4539 21.7485 15.1259C21.7245 15.8459 21.7485 16.5419 21.7485 17.2859H24.5325C24.9165 17.2859 25.0605 17.4299 25.0605 17.8139V20.7179C25.0605 21.1019 24.9405 21.2219 24.5325 21.2219C23.6685 21.2219 21.8205 21.2219 21.7485 21.2219V29.0459C21.7485 29.4539 21.6285 29.5979 21.1965 29.5979C20.1885 29.5979 19.2045 29.5979 18.1965 29.5979C17.8365 29.5979 17.6925 29.4539 17.6925 29.0939C17.6925 26.5739 17.6925 21.3179 17.6925 21.2459Z" fill="#10181E"/>
</svg>
