<svg width="40" height="40" viewBox="0 0 40 40" fill="none" xmlns="http://www.w3.org/2000/svg">
<circle cx="20" cy="20.0002" r="20" fill="white"/>
<g clip-path="url(#clip0_11_2373)">
<path d="M32 15.0562C31.9436 13.781 31.737 12.9043 31.4411 12.1447C31.1358 11.3383 30.6662 10.6164 30.0508 10.0162C29.4496 9.40671 28.7216 8.9331 27.9232 8.63312C27.1578 8.33771 26.2841 8.1315 25.0067 8.07527C23.7197 8.01428 23.3111 8.00018 20.0469 8.00018C16.7827 8.00018 16.3742 8.01428 15.0919 8.07051C13.8145 8.12673 12.9362 8.33313 12.1754 8.62836C11.3674 8.9331 10.6442 9.40195 10.043 10.0162C9.43244 10.6164 8.95819 11.3431 8.65749 12.1401C8.36156 12.9043 8.15498 13.7763 8.09866 15.0515C8.03756 16.3362 8.02344 16.7441 8.02344 20.0025C8.02344 23.261 8.03756 23.6688 8.09389 24.9488C8.15021 26.224 8.35697 27.1007 8.6529 27.8604C8.95819 28.6668 9.43244 29.3887 10.043 29.9889C10.6442 30.5983 11.3722 31.0719 12.1706 31.3719C12.9362 31.6673 13.8097 31.8736 15.0873 31.9298C16.3694 31.9862 16.7781 32.0001 20.0423 32.0001C23.3065 32.0001 23.7151 31.9862 24.9973 31.9298C26.2748 31.8736 27.153 31.6673 27.9138 31.3719C29.5296 30.7483 30.8071 29.4731 31.4318 27.8604C31.7275 27.0961 31.9343 26.224 31.9906 24.9488C32.0469 23.6688 32.061 23.261 32.061 20.0025C32.061 16.7441 32.0563 16.3362 32 15.0562ZM29.8349 24.855C29.7832 26.0271 29.5859 26.6601 29.4216 27.082C29.0176 28.1276 28.1863 28.9574 27.1389 29.3607C26.7162 29.5248 26.0776 29.7216 24.908 29.7731C23.6399 29.8295 23.2596 29.8434 20.0517 29.8434C16.8438 29.8434 16.4587 29.8295 15.1952 29.7731C14.0211 29.7216 13.387 29.5248 12.9643 29.3607C12.4431 29.1684 11.9686 28.8636 11.5836 28.4651C11.1843 28.0759 10.8791 27.6071 10.6864 27.0868C10.522 26.6648 10.3248 26.0271 10.2733 24.8598C10.2167 23.5939 10.2028 23.2141 10.2028 20.0119C10.2028 16.8096 10.2167 16.4252 10.2733 15.1641C10.3248 13.992 10.522 13.3591 10.6864 12.9371C10.8791 12.4166 11.1843 11.9432 11.5883 11.5586C11.978 11.1601 12.4477 10.8554 12.9691 10.6632C13.3918 10.4991 14.0306 10.3023 15.2 10.2506C16.4681 10.1944 16.8486 10.1803 20.0563 10.1803C23.2689 10.1803 23.6492 10.1944 24.9127 10.2506C26.0869 10.3023 26.721 10.4991 27.1437 10.6632C27.6649 10.8554 28.1393 11.1601 28.5244 11.5586C28.9236 11.9478 29.2289 12.4166 29.4216 12.9371C29.5859 13.3591 29.7832 13.9966 29.8349 15.1641C29.8912 16.43 29.9053 16.8096 29.9053 20.0119C29.9053 23.2141 29.8912 23.5892 29.8349 24.855Z" fill="#10181E"/>
<path d="M20.0511 13.8361C16.6415 13.8361 13.875 16.5975 13.875 20.0014C13.875 23.4052 16.6415 26.1667 20.0511 26.1667C23.461 26.1667 26.2273 23.4052 26.2273 20.0014C26.2273 16.5975 23.461 13.8361 20.0511 13.8361ZM20.0511 24.0006C17.8391 24.0006 16.0448 22.2097 16.0448 20.0014C16.0448 17.7931 17.8391 16.0021 20.0511 16.0021C22.2633 16.0021 24.0574 17.7931 24.0574 20.0014C24.0574 22.2097 22.2633 24.0006 20.0511 24.0006Z" fill="#10181E"/>
<path d="M27.9151 13.5957C27.9151 14.3906 27.2695 15.035 26.4731 15.035C25.6769 15.035 25.0312 14.3906 25.0312 13.5957C25.0312 12.8007 25.6769 12.1564 26.4731 12.1564C27.2695 12.1564 27.9151 12.8007 27.9151 13.5957Z" fill="#10181E"/>
</g>
<defs>
<clipPath id="clip0_11_2373">
<rect width="24" height="24" fill="white" transform="translate(8 8.00018)"/>
</clipPath>
</defs>
</svg>
