<svg width="35" height="127" viewBox="0 0 35 127" fill="none" xmlns="http://www.w3.org/2000/svg">
<path d="M9.08386 56.6725C10.5932 55.4829 11.56 53.6743 11.9982 51.2535C12.1791 50.2658 12.2695 49.1667 12.2695 47.9632C12.2695 46.8572 12.1791 45.1738 11.9982 42.913V20.7226C11.9982 10.9978 18.4877 2.71989 27.3559 0L32.6212 10.7613C27.8289 10.963 23.9686 14.949 23.9686 19.7905V106.674C23.9686 111.648 28.0376 115.717 33.0107 115.717H35L29.4774 127C19.5449 125.031 11.9982 116.225 11.9982 105.742V82.7722C12.1165 80.6506 12.1791 79.0437 12.1791 77.9377C12.1791 76.8734 12.1165 75.8856 11.9982 74.9813C11.6574 72.3449 10.8088 70.3901 9.45947 69.1311C7.83884 67.6355 4.68104 66.6964 0 66.3208V59.295C4.30545 58.9263 7.33804 58.0498 9.08386 56.6725Z" fill="white"/>
</svg>
