<svg width="40" height="40" viewBox="0 0 40 40" fill="none" xmlns="http://www.w3.org/2000/svg">
<circle cx="20" cy="20" r="20" fill="white"/>
<path d="M29.7113 29.5968V22.5648C29.7113 19.1088 28.9734 16.4688 24.9749 16.4688C23.047 16.4688 21.7618 17.5248 21.2382 18.5328H21.1906V16.7807H17.4062V29.5968H21.3572V23.2368C21.3572 21.5568 21.6666 19.9488 23.7135 19.9488C25.7365 19.9488 25.7603 21.8448 25.7603 23.3328V29.5728H29.7113V29.5968Z" fill="#10181E"/>
<path d="M10.9688 16.7812H14.9197V29.5972H10.9688V16.7812Z" fill="#10181E"/>
<path d="M12.9489 10.3984C11.6875 10.3984 10.6641 11.4304 10.6641 12.7024C10.6641 13.9744 11.6875 15.0304 12.9489 15.0304C14.2104 15.0304 15.2338 13.9744 15.2338 12.7024C15.2338 11.4304 14.2104 10.3984 12.9489 10.3984Z" fill="#10181E"/>
</svg>
