<svg width="160" height="160" viewBox="0 0 160 160" fill="none" xmlns="http://www.w3.org/2000/svg">
<rect width="160" height="160" rx="80" fill="white"/>
<path d="M88.5219 36.4814H74.4886C74.2479 36.4814 74.0479 36.2814 74.0479 36.0407C74.0479 35.7999 74.2479 35.5999 74.4886 35.5999H88.5219C88.7627 35.5999 88.9627 35.7999 88.9627 36.0407C88.9627 36.2851 88.7664 36.4814 88.5219 36.4814Z" fill="#10181E"/>
<path d="M28.8799 119.885L30.5651 117.87C31.5465 118.674 32.754 119.222 34.0132 119.222C35.2577 119.222 35.8317 118.741 35.8317 118.107C35.8317 117.174 35.0614 116.948 33.8354 116.433L32.1465 115.711C30.7095 115.167 29.3984 114.063 29.3984 112.178C29.3984 110.03 31.3317 108.315 34.1503 108.315C35.7095 108.315 37.2873 108.9 38.454 110.011L36.9762 111.859C36.0651 111.204 35.254 110.848 33.9873 110.848C33.0206 110.848 32.3651 111.248 32.3651 112.007C32.3651 112.785 33.2354 113.074 34.4762 113.537L36.0614 114.211C37.7577 114.848 38.8317 115.907 38.8317 117.737C38.8317 119.893 37.0243 121.759 33.8132 121.759C32.0651 121.759 30.254 121.118 28.8799 119.885Z" fill="#F0A500"/>
<path d="M41.1543 108.555H44.121V113.844H44.195L48.0136 108.555H51.2728L44.121 117.978V121.518H41.1543V108.555ZM45.3691 115.504L47.0876 113.215L51.6358 121.522H48.3839L45.3691 115.504Z" fill="#F0A500"/>
<path d="M65.0613 108.555H69.6687C72.4132 108.555 74.6761 109.511 74.6761 112.596C74.6761 115.574 72.4169 116.855 69.6687 116.855H67.9984V121.518H65.0576V108.555H65.0613ZM69.4317 114.529C70.9724 114.529 71.7984 113.866 71.7984 112.596C71.7984 111.315 70.9724 110.885 69.4317 110.885H68.0021V114.526H69.4317V114.529ZM71.1613 114.204L75.2984 121.522H72.0169L69.1317 116.085L71.1613 114.204Z" fill="#F0A500"/>
<path d="M77.7021 108.555H86.3207V111.015H80.6355V114.018H85.491V116.478H80.6355V121.518H77.7021V108.555Z" fill="#F0A500"/>
<path d="M89.8232 108.411H93.1455C95.8418 108.411 97.4343 109.407 97.4343 111.592C97.4343 112.959 96.6677 114.055 95.1195 114.452V114.53C97.0566 114.815 98.2455 115.878 98.2455 117.696C98.2455 120.218 96.4306 121.515 93.4047 121.515H89.8269V108.411H89.8232ZM92.7825 114.163C95.4751 114.163 96.5307 113.3 96.5307 111.633C96.5307 109.889 95.3529 109.196 92.8936 109.196H90.7381V114.163H92.7825ZM93.164 120.737C95.8269 120.737 97.3381 119.811 97.3381 117.707C97.3381 115.822 95.8455 114.948 93.164 114.948H90.7381V120.737H93.164Z" fill="#10181E"/>
<path d="M104.996 116.707L100.503 108.415H101.447L103.773 112.737C104.358 113.752 104.858 114.774 105.455 115.822H105.533C106.136 114.774 106.696 113.748 107.251 112.718L109.503 108.411H110.403L105.91 116.704V121.518H104.992V116.707H104.996Z" fill="#10181E"/>
<path d="M116.928 109.2H112.365V108.411H122.41V109.2H117.847V121.518H116.928V109.2Z" fill="#10181E"/>
<path d="M125.884 108.411H133.643V109.2H126.802V114.163H132.562V114.952H126.802V120.73H133.843V121.518H125.887V108.411H125.884Z" fill="#10181E"/>
<path d="M88.4692 36.4814H74.4359C74.1951 36.4814 73.9951 36.2814 73.9951 36.0407C73.9951 35.7999 74.1951 35.5999 74.4359 35.5999H88.4692C88.7099 35.5999 88.9099 35.7999 88.9099 36.0407C88.9099 36.2851 88.7099 36.4814 88.4692 36.4814Z" fill="white"/>
<path d="M56.3906 108.555H59.9091L63.9461 121.518H60.835L59.1609 114.955C58.8313 113.663 58.4387 112.144 58.1276 110.774H58.0498C57.7313 112.141 57.372 113.659 57.0424 114.955L55.3572 121.518H52.3535L56.3906 108.555Z" fill="#F0A500"/>
<path d="M91.064 34.1333H71.6937C71.2751 34.1333 70.8566 34.1555 70.4492 34.2L73.464 40.3592H88.9788L92.0085 34.1704C91.6974 34.1481 91.3826 34.1333 91.064 34.1333ZM87.8788 37.0704C87.8788 37.2926 87.6974 37.4778 87.4714 37.4778H75.6937C75.4677 37.4778 75.2863 37.2926 75.2863 37.0704V36.9963C75.2863 36.7741 75.4677 36.5926 75.6937 36.5926H87.4714C87.6974 36.5926 87.8788 36.7741 87.8788 36.9963V37.0704Z" fill="#F0A500"/>
<path d="M104.155 64.8111C103.352 64.1777 102.837 63.2148 102.604 61.9259C102.507 61.4 102.459 60.8148 102.459 60.174C102.459 59.5852 102.507 58.6889 102.604 57.4852V45.6703C102.604 40.4926 99.1481 36.0852 94.4258 34.637L91.6221 40.3666C94.174 40.474 96.2295 42.5963 96.2295 45.174V91.4333C96.2295 94.0815 94.0629 96.2481 91.4147 96.2481H90.3555L93.2962 102.256C98.5851 101.207 102.604 96.5185 102.604 90.937V78.7074C102.541 77.5777 102.507 76.7222 102.507 76.1333C102.507 75.5666 102.541 75.0407 102.604 74.5592C102.785 73.1555 103.237 72.1148 103.955 71.4444C104.818 70.6481 106.5 70.1481 108.993 69.9481V66.2074C106.7 66.0111 105.085 65.5444 104.155 64.8111Z" fill="#10181E"/>
<path d="M71.6289 96.248C68.9808 96.248 66.8141 94.0813 66.8141 91.4332V45.1739C66.8141 42.7887 68.5696 40.7961 70.8548 40.422L68.0622 34.722C63.4808 36.2517 60.1511 40.5924 60.1511 45.6702V62.9665C59.8734 63.6369 59.4808 64.1776 58.9696 64.5776C58.0363 65.3109 56.4252 65.7776 54.1289 65.9776V69.7183C56.6252 69.9146 58.303 70.4146 59.1659 71.2146C59.5882 71.6035 59.9141 72.122 60.1511 72.7628V90.9369C60.1511 96.4776 64.1178 101.141 69.3511 102.229L72.2808 96.248H71.6289Z" fill="#10181E"/>
<path d="M87.7148 96.248H74.9222L71.874 102.474H90.7629L87.7148 96.248ZM81.3185 101.215C80.2962 101.215 79.4666 100.385 79.4666 99.3628C79.4666 98.3406 80.2962 97.511 81.3185 97.511C82.3407 97.511 83.1703 98.3406 83.1703 99.3628C83.1703 100.385 82.3407 101.215 81.3185 101.215Z" fill="#F0A500"/>
</svg>
