<svg width="337" height="72" viewBox="0 0 337 72" fill="none" xmlns="http://www.w3.org/2000/svg">
<rect width="337" height="72" rx="10" fill="white"/>
<path d="M16 49.621L20.8968 43.7663C23.7487 46.1017 27.2572 47.6945 30.9163 47.6945C34.5324 47.6945 36.2006 46.2955 36.2006 44.4551C36.2006 41.7431 33.962 41.0866 30.3998 39.5906L25.4922 37.492C21.3165 35.91 17.5067 32.7029 17.5067 27.2249C17.5067 20.9829 23.1245 16 31.3145 16C35.8454 16 40.4301 17.7004 43.8202 20.9291L39.5261 26.2994C36.8786 24.3945 34.5217 23.3613 30.841 23.3613C28.0321 23.3613 26.1272 24.5236 26.1272 26.7299C26.1272 28.9899 28.6563 29.8293 32.2616 31.1746L36.8678 33.1333C41.7969 34.9844 44.9179 38.0624 44.9179 43.3789C44.9179 49.6425 39.666 55.0666 30.3352 55.0666C25.2555 55.0666 19.9928 53.2048 16 49.621Z" fill="#F0A500"/>
<path d="M51.665 16.6995H60.2855V32.0679H60.5008L71.5966 16.6995H81.0673L60.2855 44.0784V54.367H51.665V16.6995ZM63.9124 36.8893L68.906 30.2383L82.1219 54.3778H72.6728L63.9124 36.8893Z" fill="#F0A500"/>
<path d="M121.136 16.6995H134.524C142.499 16.6995 149.074 19.4761 149.074 28.441C149.074 37.0938 142.509 40.8175 134.524 40.8175H129.67V54.367H121.125V16.6995H121.136ZM133.835 34.0589C138.312 34.0589 140.712 32.1324 140.712 28.441C140.712 24.7173 138.312 23.4689 133.835 23.4689H129.681V34.0481H133.835V34.0589ZM138.861 33.1118L150.882 54.3778H141.347L132.963 38.5789L138.861 33.1118Z" fill="#F0A500"/>
<path d="M157.867 16.6995H182.911V23.8455H166.391V32.5737H180.5V39.7197H166.391V54.367H157.867V16.6995Z" fill="#F0A500"/>
<path d="M193.092 16.2798H202.745C210.58 16.2798 215.208 19.1748 215.208 25.5245C215.208 29.4957 212.98 32.6813 208.482 33.8329V34.0589C214.11 34.8876 217.565 37.9763 217.565 43.2605C217.565 50.5895 212.291 54.3563 203.499 54.3563H193.103V16.2798H193.092ZM201.691 32.9934C209.515 32.9934 212.582 30.4858 212.582 25.6429C212.582 20.5739 209.16 18.5614 202.014 18.5614H195.75V32.9934H201.691ZM202.799 52.0962C210.537 52.0962 214.928 49.4057 214.928 43.2928C214.928 37.8149 210.591 35.275 202.799 35.275H195.75V52.0962H202.799Z" fill="#10181E"/>
<path d="M237.174 40.387L224.119 16.2906H226.864L233.622 28.85C235.323 31.7988 236.775 34.7692 238.508 37.8149H238.734C240.488 34.7692 242.113 31.7881 243.728 28.7962L250.271 16.2798H252.886L239.832 40.3763V54.3671H237.163V40.387H237.174Z" fill="#10181E"/>
<path d="M271.849 18.5721H258.59V16.2798H287.777V18.5721H274.518V54.3671H271.849V18.5721Z" fill="#10181E"/>
<path d="M297.872 16.2798H320.419V18.5721H300.541V32.9934H317.276V35.2858H300.541V52.0747H321V54.3671H297.883V16.2798H297.872Z" fill="#10181E"/>
<path d="M95.9319 16.6997H106.156L117.887 54.3672H108.847L103.982 35.2967C103.024 31.5407 101.883 27.1282 100.979 23.1462H100.753C99.8278 27.1174 98.7839 31.5299 97.8261 35.2967L92.9293 54.3672H84.2012L95.9319 16.6997Z" fill="#F0A500"/>
</svg>
