<?xml version="1.0" encoding="utf-8"?>
<!-- Generator: Adobe Illustrator 26.0.1, SVG Export Plug-In . SVG Version: 6.00 Build 0)  -->
<svg version="1.1" id="Layer_1" xmlns="http://www.w3.org/2000/svg" xmlns:xlink="http://www.w3.org/1999/xlink" x="0px" y="0px"
	 viewBox="0 0 432 432" style="enable-background:new 0 0 432 432;" xml:space="preserve">
<style type="text/css">
	.st0{fill:#10181E;}
	.st1{fill:#F0A500;}
	.st2{fill:#FFFFFF;}
</style>
<g>
	<path class="st0" d="M239.01,98.5h-37.89c-0.65,0-1.19-0.54-1.19-1.19v0c0-0.65,0.54-1.19,1.19-1.19h37.89
		c0.65,0,1.19,0.54,1.19,1.19v0C240.2,97.97,239.67,98.5,239.01,98.5z"/>
	<g>
		<g>
			<path class="st1" d="M77.98,323.69l4.55-5.44c2.65,2.17,5.91,3.65,9.31,3.65c3.36,0,4.91-1.3,4.91-3.01
				c0-2.52-2.08-3.13-5.39-4.52l-4.56-1.95c-3.88-1.47-7.42-4.45-7.42-9.54c0-5.8,5.22-10.43,12.83-10.43
				c4.21,0,8.47,1.58,11.62,4.58l-3.99,4.99c-2.46-1.77-4.65-2.73-8.07-2.73c-2.61,0-4.38,1.08-4.38,3.13c0,2.1,2.35,2.88,5.7,4.13
				l4.28,1.82c4.58,1.72,7.48,4.58,7.48,9.52c0,5.82-4.88,10.86-13.55,10.86C86.58,328.75,81.69,327.02,77.98,323.69z"/>
			<path class="st1" d="M111.12,293.1h8.01v14.28h0.2l10.31-14.28h8.8l-19.31,25.44v9.56h-8.01V293.1z M122.5,311.86l4.64-6.18
				l12.28,22.43h-8.78L122.5,311.86z"/>
			<path class="st1" d="M175.67,293.1h12.44c7.41,0,13.52,2.58,13.52,10.91c0,8.04-6.1,11.5-13.52,11.5h-4.51v12.59h-7.94V293.1z
				 M187.47,309.23c4.16,0,6.39-1.79,6.39-5.22c0-3.46-2.23-4.62-6.39-4.62h-3.86v9.83H187.47z M192.14,308.35l11.17,19.76h-8.86
				l-7.79-14.68L192.14,308.35z"/>
			<path class="st1" d="M209.8,293.1h23.27v6.64h-15.35v8.11h13.11v6.64h-13.11v13.61h-7.92V293.1z"/>
			<path class="st0" d="M242.53,292.71h8.97c7.28,0,11.58,2.69,11.58,8.59c0,3.69-2.07,6.65-6.25,7.72v0.21
				c5.23,0.77,8.44,3.64,8.44,8.55c0,6.81-4.9,10.31-13.07,10.31h-9.66V292.71z M250.52,308.24c7.27,0,10.12-2.33,10.12-6.83
				c0-4.71-3.18-6.58-9.82-6.58h-5.82v13.41H250.52z M251.55,325.99c7.19,0,11.27-2.5,11.27-8.18c0-5.09-4.03-7.45-11.27-7.45h-6.55
				v15.63H251.55z"/>
			<path class="st0" d="M283.49,315.11l-12.13-22.39h2.55l6.28,11.67c1.58,2.74,2.93,5.5,4.54,8.33h0.21
				c1.63-2.83,3.14-5.6,4.64-8.38l6.08-11.63h2.43l-12.13,22.39v13h-2.48V315.11z"/>
			<path class="st0" d="M315.71,294.84h-12.32v-2.13h27.12v2.13h-12.32v33.26h-2.48V294.84z"/>
			<path class="st0" d="M339.89,292.71h20.95v2.13h-18.47v13.4h15.55v2.13h-15.55v15.6h19.01v2.13h-21.48V292.71z"/>
		</g>
	</g>
	<path class="st2" d="M238.87,98.5h-37.89c-0.65,0-1.19-0.54-1.19-1.19v0c0-0.65,0.54-1.19,1.19-1.19h37.89
		c0.65,0,1.19,0.54,1.19,1.19v0C240.06,97.97,239.52,98.5,238.87,98.5z"/>
	<g>
		<path class="st1" d="M152.25,293.1h9.5l10.9,35h-8.4l-4.52-17.72c-0.89-3.49-1.95-7.59-2.79-11.29h-0.21
			c-0.86,3.69-1.83,7.79-2.72,11.29l-4.55,17.72h-8.11L152.25,293.1z"/>
	</g>
	<g>
		<path class="st1" d="M245.88,92.16h-52.3c-1.13,0-2.26,0.06-3.36,0.18l8.14,16.63h41.89l8.18-16.71
			C247.59,92.2,246.74,92.16,245.88,92.16z M237.28,100.09c0,0.6-0.49,1.1-1.1,1.1h-31.8c-0.61,0-1.1-0.5-1.1-1.1v-0.2
			c0-0.6,0.49-1.09,1.1-1.09h31.8c0.61,0,1.1,0.49,1.1,1.09V100.09z"/>
		<path class="st0" d="M281.22,174.99c-2.17-1.71-3.56-4.31-4.19-7.79c-0.26-1.42-0.39-3-0.39-4.73c0-1.59,0.13-4.01,0.39-7.26
			v-31.9c0-13.98-9.33-25.88-22.08-29.79l-7.57,15.47c6.89,0.29,12.44,6.02,12.44,12.98v124.9c0,7.15-5.85,13-13,13h-2.86
			l7.94,16.22c14.28-2.83,25.13-15.49,25.13-30.56v-33.02c-0.17-3.05-0.26-5.36-0.26-6.95c0-1.53,0.09-2.95,0.26-4.25
			c0.49-3.79,1.71-6.6,3.65-8.41c2.33-2.15,6.87-3.5,13.6-4.04v-10.1C288.09,178.23,283.73,176.97,281.22,174.99z"/>
		<path class="st0" d="M193.4,259.87c-7.15,0-13-5.85-13-13v-124.9c0-6.44,4.74-11.82,10.91-12.83l-7.54-15.39
			c-12.37,4.13-21.36,15.85-21.36,29.56v46.7c-0.75,1.81-1.81,3.27-3.19,4.35c-2.52,1.98-6.87,3.24-13.07,3.78v10.1
			c6.74,0.53,11.27,1.88,13.6,4.04c1.14,1.05,2.02,2.45,2.66,4.18v49.07c0,14.96,10.71,27.55,24.84,30.49l7.91-16.15H193.4z"/>
		<path class="st1" d="M236.83,259.87h-34.54l-8.23,16.81h51L236.83,259.87z M219.56,273.28c-2.76,0-5-2.24-5-5s2.24-5,5-5
			s5,2.24,5,5S222.32,273.28,219.56,273.28z"/>
	</g>
</g>
</svg>
