<svg width="35" height="127" viewBox="0 0 35 127" fill="none" xmlns="http://www.w3.org/2000/svg">
<path d="M25.9161 56.6725C24.4068 55.4829 23.44 53.6743 23.0018 51.2535C22.8209 50.2658 22.7305 49.1667 22.7305 47.9632C22.7305 46.8572 22.8209 45.1738 23.0018 42.913V20.7226C23.0018 10.9978 16.5123 2.71989 7.64407 0L2.37877 10.7613C7.1711 10.963 11.0314 14.949 11.0314 19.7905V106.674C11.0314 111.648 6.96244 115.717 1.98927 115.717H0L5.52265 127C15.4551 125.031 23.0018 116.225 23.0018 105.742V82.7722C22.8835 80.6506 22.8209 79.0437 22.8209 77.9377C22.8209 76.8734 22.8835 75.8856 23.0018 74.9813C23.3426 72.3449 24.1912 70.3901 25.5405 69.1311C27.1612 67.6355 30.319 66.6964 35 66.3208V59.295C30.6946 58.9263 27.662 58.0498 25.9161 56.6725Z" fill="white"/>
</svg>
