<svg width="40" height="40" viewBox="0 0 40 40" fill="none" xmlns="http://www.w3.org/2000/svg">
<circle cx="20" cy="20.0002" r="20" fill="white"/>
<path d="M32 12.5587C31.1075 12.9502 30.1565 13.2097 29.165 13.3357C30.185 12.7267 30.9635 11.7697 31.3295 10.6162C30.3785 11.1832 29.3285 11.5837 28.2095 11.8072C27.3065 10.8457 26.0195 10.2502 24.6155 10.2502C21.8915 10.2502 19.6985 12.4612 19.6985 15.1717C19.6985 15.5617 19.7315 15.9367 19.8125 16.2937C15.722 16.0942 12.1025 14.1337 9.671 11.1472C9.2465 11.8837 8.9975 12.7267 8.9975 13.6342C8.9975 15.3382 9.875 16.8487 11.183 17.7232C10.3925 17.7082 9.617 17.4787 8.96 17.1172C8.96 17.1322 8.96 17.1517 8.96 17.1712C8.96 19.5622 10.6655 21.5482 12.902 22.0057C12.5015 22.1152 12.065 22.1677 11.612 22.1677C11.297 22.1677 10.979 22.1497 10.6805 22.0837C11.318 24.0322 13.127 25.4647 15.278 25.5112C13.604 26.8207 11.4785 27.6097 9.1775 27.6097C8.774 27.6097 8.387 27.5917 8 27.5422C10.1795 28.9477 12.7625 29.7502 15.548 29.7502C24.602 29.7502 29.552 22.2502 29.552 15.7492C29.552 15.5317 29.5445 15.3217 29.534 15.1132C30.5105 14.4202 31.331 13.5547 32 12.5587Z" fill="#10181E"/>
</svg>
