<svg width="40" height="40" viewBox="0 0 40 40" fill="none" xmlns="http://www.w3.org/2000/svg">
<circle cx="20" cy="20.0002" r="20" fill="white"/>
<g clip-path="url(#clip0_11_2387)">
<path d="M31.5006 14.5063C31.3647 14.0215 31.1 13.5826 30.7346 13.2363C30.3589 12.8793 29.8984 12.6239 29.3966 12.4943C27.5186 11.9993 19.9946 11.9993 19.9946 11.9993C16.8579 11.9636 13.722 12.1206 10.6046 12.4693C10.1028 12.6085 9.64318 12.8696 9.26662 13.2293C8.89662 13.5853 8.62862 14.0243 8.48862 14.5053C8.15231 16.317 7.98891 18.1566 8.00062 19.9993C7.98862 21.8403 8.15162 23.6793 8.48862 25.4933C8.62562 25.9723 8.89262 26.4093 9.26362 26.7623C9.63462 27.1153 10.0966 27.3703 10.6046 27.5053C12.5076 27.9993 19.9946 27.9993 19.9946 27.9993C23.1353 28.035 26.2752 27.8781 29.3966 27.5293C29.8984 27.3996 30.3589 27.1443 30.7346 26.7873C31.0999 26.441 31.3643 26.0021 31.4996 25.5173C31.8447 23.7062 32.0125 21.8659 32.0006 20.0223C32.0266 18.1709 31.859 16.3218 31.5006 14.5053V14.5063ZM17.6026 23.4233V16.5763L23.8626 20.0003L17.6026 23.4233Z" fill="#10181E"/>
</g>
<defs>
<clipPath id="clip0_11_2387">
<rect width="24" height="24" fill="white" transform="translate(8 8.00018)"/>
</clipPath>
</defs>
</svg>
